<?xml version="1.0" standalone="no"?><svg xmlns:xlink="http://www.w3.org/1999/xlink" xmlns="http://www.w3.org/2000/svg" viewBox="0 0 1500 807.6923076923077" preserveAspectRatio="xMaxYMax slice"><g transform="scale(1.5806111696522656)"><rect x="0" y="0" width="949" height="511" fill="#fc6464"/><rect x="18.25" y="18.25" width="36.5" height="36.5" fill="#fc6464"/><circle cx="27.375" cy="27.375" r="9.125" fill="#b6598a"/><g transform="translate(36.5,18.25) scale(0.9125) rotate(0)"><path d="M10 1L12.2451 7.90983H19.5106L13.6327 12.1803L15.8779 19.0902L10 14.8197L4.12215 19.0902L6.36729 12.1803L0.489441 7.90983H7.75487L10 1Z" fill="#eab13a"/></g><g transform="translate(18.25,36.5) scale(0.9125) rotate(0)"><path d="M10 1L12.2451 7.90983H19.5106L13.6327 12.1803L15.8779 19.0902L10 14.8197L4.12215 19.0902L6.36729 12.1803L0.489441 7.90983H7.75487L10 1Z" fill="#ef9944"/></g><circle cx="45.625" cy="45.625" r="9.125" fill="#f09649"/><rect x="91.25" y="18.25" width="36.5" height="36.5" fill="#fc6464"/><g transform="translate(91.25,18.25) scale(0.9125) rotate(0)"><path d="M10 1L12.2451 7.90983H19.5106L13.6327 12.1803L15.8779 19.0902L10 14.8197L4.12215 19.0902L6.36729 12.1803L0.489441 7.90983H7.75487L10 1Z" fill="#f8755a"/></g><g transform="translate(109.5,18.25) scale(0.9125) rotate(0)"><path d="M10 1L12.2451 7.90983H19.5106L13.6327 12.1803L15.8779 19.0902L10 14.8197L4.12215 19.0902L6.36729 12.1803L0.489441 7.90983H7.75487L10 1Z" fill="#dd9c52"/></g><g transform="translate(91.25,36.5) scale(0.9125) rotate(0)"><path d="M10 1L12.2451 7.90983H19.5106L13.6327 12.1803L15.8779 19.0902L10 14.8197L4.12215 19.0902L6.36729 12.1803L0.489441 7.90983H7.75487L10 1Z" fill="#ebac3c"/></g><circle cx="182.5" cy="36.5" r="18.25" fill="#e5be2e"/><circle cx="328.5" cy="36.5" r="18.25" fill="#ee9c43"/><rect x="383.25" y="18.25" width="36.5" height="36.5" fill="#fc6464"/><circle cx="392.375" cy="27.375" r="9.125" fill="#d7a84f"/><circle cx="410.625" cy="27.375" r="9.125" fill="#eba63d"/><g transform="translate(383.25,36.5) scale(0.9125) rotate(0)"><path d="M10 1L12.2451 7.90983H19.5106L13.6327 12.1803L15.8779 19.0902L10 14.8197L4.12215 19.0902L6.36729 12.1803L0.489441 7.90983H7.75487L10 1Z" fill="#bd5a87"/></g><g transform="translate(401.5,36.5) scale(0.9125) rotate(0)"><path d="M10 1L12.2451 7.90983H19.5106L13.6327 12.1803L15.8779 19.0902L10 14.8197L4.12215 19.0902L6.36729 12.1803L0.489441 7.90983H7.75487L10 1Z" fill="#3e45cc"/></g><rect x="529.25" y="18.25" width="36.5" height="36.5" fill="#fc6464"/><circle cx="538.375" cy="27.375" r="9.125" fill="#e3c729"/><g transform="translate(547.5,18.25) scale(0.9125) rotate(0)"><path d="M10 1L12.2451 7.90983H19.5106L13.6327 12.1803L15.8779 19.0902L10 14.8197L4.12215 19.0902L6.36729 12.1803L0.489441 7.90983H7.75487L10 1Z" fill="#3444d2"/></g><circle cx="620.5" cy="36.5" r="18.25" fill="#f67b56"/><g transform="translate(748.25,18.25) scale(1.825) rotate(0)"><path d="M10 1L12.2451 7.90983H19.5106L13.6327 12.1803L15.8779 19.0902L10 14.8197L4.12215 19.0902L6.36729 12.1803L0.489441 7.90983H7.75487L10 1Z" fill="#2d42d6"/></g><g transform="translate(821.25,18.25) scale(1.825) rotate(0)"><path d="M10 1L12.2451 7.90983H19.5106L13.6327 12.1803L15.8779 19.0902L10 14.8197L4.12215 19.0902L6.36729 12.1803L0.489441 7.90983H7.75487L10 1Z" fill="#b2588c"/></g><g transform="translate(894.25,18.25) scale(1.825) rotate(0)"><path d="M10 1L12.2451 7.90983H19.5106L13.6327 12.1803L15.8779 19.0902L10 14.8197L4.12215 19.0902L6.36729 12.1803L0.489441 7.90983H7.75487L10 1Z" fill="#fb6862"/></g><rect x="18.25" y="91.25" width="36.5" height="36.5" fill="#fc6464"/><circle cx="27.375" cy="100.375" r="9.125" fill="#f8755b"/><circle cx="45.625" cy="100.375" r="9.125" fill="#e3cd2a"/><circle cx="27.375" cy="118.625" r="9.125" fill="#8b52a2"/><g transform="translate(36.5,109.5) scale(0.9125) rotate(0)"><path d="M10 1L12.2451 7.90983H19.5106L13.6327 12.1803L15.8779 19.0902L10 14.8197L4.12215 19.0902L6.36729 12.1803L0.489441 7.90983H7.75487L10 1Z" fill="#df5f74"/></g><circle cx="109.5" cy="109.5" r="18.25" fill="#acf636"/><g transform="translate(164.25,91.25) scale(1.825) rotate(0)"><path d="M10 1L12.2451 7.90983H19.5106L13.6327 12.1803L15.8779 19.0902L10 14.8197L4.12215 19.0902L6.36729 12.1803L0.489441 7.90983H7.75487L10 1Z" fill="#e0dd21"/></g><g transform="translate(237.25,91.25) scale(1.825) rotate(0)"><path d="M10 1L12.2451 7.90983H19.5106L13.6327 12.1803L15.8779 19.0902L10 14.8197L4.12215 19.0902L6.36729 12.1803L0.489441 7.90983H7.75487L10 1Z" fill="#e7b633"/></g><rect x="310.25" y="91.25" width="36.5" height="36.5" fill="#fc6464"/><g transform="translate(310.25,91.25) scale(0.9125) rotate(0)"><path d="M10 1L12.2451 7.90983H19.5106L13.6327 12.1803L15.8779 19.0902L10 14.8197L4.12215 19.0902L6.36729 12.1803L0.489441 7.90983H7.75487L10 1Z" fill="#e7bb34"/></g><circle cx="337.625" cy="100.375" r="9.125" fill="#e0db22"/><circle cx="401.5" cy="109.5" r="18.25" fill="#f28c4c"/><g transform="translate(456.25,91.25) scale(1.825) rotate(0)"><path d="M10 1L12.2451 7.90983H19.5106L13.6327 12.1803L15.8779 19.0902L10 14.8197L4.12215 19.0902L6.36729 12.1803L0.489441 7.90983H7.75487L10 1Z" fill="#5248c1"/></g><g transform="translate(602.25,91.25) scale(1.825) rotate(0)"><path d="M10 1L12.2451 7.90983H19.5106L13.6327 12.1803L15.8779 19.0902L10 14.8197L4.12215 19.0902L6.36729 12.1803L0.489441 7.90983H7.75487L10 1Z" fill="#e6bb30"/></g><circle cx="766.5" cy="109.5" r="18.25" fill="#c25b84"/><g transform="translate(821.25,91.25) scale(1.825) rotate(0)"><path d="M10 1L12.2451 7.90983H19.5106L13.6327 12.1803L15.8779 19.0902L10 14.8197L4.12215 19.0902L6.36729 12.1803L0.489441 7.90983H7.75487L10 1Z" fill="#e7bd33"/></g><g transform="translate(894.25,91.25) scale(1.825) rotate(0)"><path d="M10 1L12.2451 7.90983H19.5106L13.6327 12.1803L15.8779 19.0902L10 14.8197L4.12215 19.0902L6.36729 12.1803L0.489441 7.90983H7.75487L10 1Z" fill="#cf5d7d"/></g><g transform="translate(91.25,164.25) scale(1.825) rotate(0)"><path d="M10 1L12.2451 7.90983H19.5106L13.6327 12.1803L15.8779 19.0902L10 14.8197L4.12215 19.0902L6.36729 12.1803L0.489441 7.90983H7.75487L10 1Z" fill="#f3755f"/></g><g transform="translate(164.25,164.25) scale(1.825) rotate(0)"><path d="M10 1L12.2451 7.90983H19.5106L13.6327 12.1803L15.8779 19.0902L10 14.8197L4.12215 19.0902L6.36729 12.1803L0.489441 7.90983H7.75487L10 1Z" fill="#b3588c"/></g><circle cx="328.5" cy="182.5" r="18.25" fill="#adf436"/><rect x="529.25" y="164.25" width="36.5" height="36.5" fill="#fc6464"/><g transform="translate(529.25,164.25) scale(0.9125) rotate(0)"><path d="M10 1L12.2451 7.90983H19.5106L13.6327 12.1803L15.8779 19.0902L10 14.8197L4.12215 19.0902L6.36729 12.1803L0.489441 7.90983H7.75487L10 1Z" fill="#cfb64a"/></g><circle cx="538.375" cy="191.625" r="9.125" fill="#d6a94e"/><circle cx="556.625" cy="191.625" r="9.125" fill="#8851a4"/><circle cx="620.5" cy="182.5" r="18.25" fill="#e4c12d"/><circle cx="693.5" cy="182.5" r="18.25" fill="#5749be"/><circle cx="839.5" cy="182.5" r="18.25" fill="#95539d"/><circle cx="912.5" cy="182.5" r="18.25" fill="#da5f76"/><g transform="translate(237.25,237.25) scale(1.825) rotate(0)"><path d="M10 1L12.2451 7.90983H19.5106L13.6327 12.1803L15.8779 19.0902L10 14.8197L4.12215 19.0902L6.36729 12.1803L0.489441 7.90983H7.75487L10 1Z" fill="#6a4cb4"/></g><circle cx="328.5" cy="255.5" r="18.25" fill="#f48750"/><g transform="translate(383.25,237.25) scale(1.825) rotate(0)"><path d="M10 1L12.2451 7.90983H19.5106L13.6327 12.1803L15.8779 19.0902L10 14.8197L4.12215 19.0902L6.36729 12.1803L0.489441 7.90983H7.75487L10 1Z" fill="#e09754"/></g><g transform="translate(529.25,237.25) scale(1.825) rotate(0)"><path d="M10 1L12.2451 7.90983H19.5106L13.6327 12.1803L15.8779 19.0902L10 14.8197L4.12215 19.0902L6.36729 12.1803L0.489441 7.90983H7.75487L10 1Z" fill="#4a47c6"/></g><rect x="602.25" y="237.25" width="36.5" height="36.5" fill="#fc6464"/><g transform="translate(602.25,237.25) scale(0.9125) rotate(0)"><path d="M10 1L12.2451 7.90983H19.5106L13.6327 12.1803L15.8779 19.0902L10 14.8197L4.12215 19.0902L6.36729 12.1803L0.489441 7.90983H7.75487L10 1Z" fill="#e0dc22"/></g><circle cx="611.375" cy="264.625" r="9.125" fill="#e46071"/><rect x="675.25" y="237.25" width="36.5" height="36.5" fill="#fc6464"/><g transform="translate(675.25,255.5) scale(0.9125) rotate(0)"><path d="M10 1L12.2451 7.90983H19.5106L13.6327 12.1803L15.8779 19.0902L10 14.8197L4.12215 19.0902L6.36729 12.1803L0.489441 7.90983H7.75487L10 1Z" fill="#f3745f"/></g><circle cx="702.625" cy="264.625" r="9.125" fill="#eba73c"/><circle cx="766.5" cy="255.5" r="18.25" fill="#a8fd34"/><circle cx="839.5" cy="255.5" r="18.25" fill="#f07a5d"/><g transform="translate(894.25,237.25) scale(1.825) rotate(0)"><path d="M10 1L12.2451 7.90983H19.5106L13.6327 12.1803L15.8779 19.0902L10 14.8197L4.12215 19.0902L6.36729 12.1803L0.489441 7.90983H7.75487L10 1Z" fill="#7c4faa"/></g><circle cx="36.5" cy="328.5" r="18.25" fill="#d8a64f"/><circle cx="255.5" cy="328.5" r="18.25" fill="#f48451"/><g transform="translate(310.25,310.25) scale(1.825) rotate(0)"><path d="M10 1L12.2451 7.90983H19.5106L13.6327 12.1803L15.8779 19.0902L10 14.8197L4.12215 19.0902L6.36729 12.1803L0.489441 7.90983H7.75487L10 1Z" fill="#d55e7a"/></g><circle cx="401.5" cy="328.5" r="18.25" fill="#fa6465"/><g transform="translate(456.25,310.25) scale(1.825) rotate(0)"><path d="M10 1L12.2451 7.90983H19.5106L13.6327 12.1803L15.8779 19.0902L10 14.8197L4.12215 19.0902L6.36729 12.1803L0.489441 7.90983H7.75487L10 1Z" fill="#774ead"/></g><circle cx="547.5" cy="328.5" r="18.25" fill="#c25b84"/><g transform="translate(675.25,310.25) scale(1.825) rotate(0)"><path d="M10 1L12.2451 7.90983H19.5106L13.6327 12.1803L15.8779 19.0902L10 14.8197L4.12215 19.0902L6.36729 12.1803L0.489441 7.90983H7.75487L10 1Z" fill="#d25d7b"/></g><circle cx="766.5" cy="328.5" r="18.25" fill="#b6e43c"/><g transform="translate(821.25,310.25) scale(1.825) rotate(0)"><path d="M10 1L12.2451 7.90983H19.5106L13.6327 12.1803L15.8779 19.0902L10 14.8197L4.12215 19.0902L6.36729 12.1803L0.489441 7.90983H7.75487L10 1Z" fill="#bfd441"/></g><g transform="translate(894.25,310.25) scale(1.825) rotate(0)"><path d="M10 1L12.2451 7.90983H19.5106L13.6327 12.1803L15.8779 19.0902L10 14.8197L4.12215 19.0902L6.36729 12.1803L0.489441 7.90983H7.75487L10 1Z" fill="#d95e77"/></g><g transform="translate(18.25,383.25) scale(1.825) rotate(0)"><path d="M10 1L12.2451 7.90983H19.5106L13.6327 12.1803L15.8779 19.0902L10 14.8197L4.12215 19.0902L6.36729 12.1803L0.489441 7.90983H7.75487L10 1Z" fill="#f86b62"/></g><circle cx="182.5" cy="401.5" r="18.25" fill="#df9853"/><g transform="translate(237.25,383.25) scale(1.825) rotate(0)"><path d="M10 1L12.2451 7.90983H19.5106L13.6327 12.1803L15.8779 19.0902L10 14.8197L4.12215 19.0902L6.36729 12.1803L0.489441 7.90983H7.75487L10 1Z" fill="#e3c828"/></g><circle cx="328.5" cy="401.5" r="18.25" fill="#eaaa3b"/><rect x="456.25" y="383.25" width="36.5" height="36.5" fill="#fc6464"/><g transform="translate(456.25,383.25) scale(0.9125) rotate(0)"><path d="M10 1L12.2451 7.90983H19.5106L13.6327 12.1803L15.8779 19.0902L10 14.8197L4.12215 19.0902L6.36729 12.1803L0.489441 7.90983H7.75487L10 1Z" fill="#ee9a44"/></g><g transform="translate(474.5,383.25) scale(0.9125) rotate(0)"><path d="M10 1L12.2451 7.90983H19.5106L13.6327 12.1803L15.8779 19.0902L10 14.8197L4.12215 19.0902L6.36729 12.1803L0.489441 7.90983H7.75487L10 1Z" fill="#ed7f5b"/></g><circle cx="483.625" cy="410.625" r="9.125" fill="#5849be"/><circle cx="547.5" cy="401.5" r="18.25" fill="#f38b4f"/><rect x="821.25" y="383.25" width="36.5" height="36.5" fill="#fc6464"/><rect x="91.25" y="456.25" width="36.5" height="36.5" fill="#fc6464"/><g transform="translate(91.25,456.25) scale(0.9125) rotate(0)"><path d="M10 1L12.2451 7.90983H19.5106L13.6327 12.1803L15.8779 19.0902L10 14.8197L4.12215 19.0902L6.36729 12.1803L0.489441 7.90983H7.75487L10 1Z" fill="#f86b62"/></g><g transform="translate(91.25,474.5) scale(0.9125) rotate(0)"><path d="M10 1L12.2451 7.90983H19.5106L13.6327 12.1803L15.8779 19.0902L10 14.8197L4.12215 19.0902L6.36729 12.1803L0.489441 7.90983H7.75487L10 1Z" fill="#f77759"/></g><circle cx="118.625" cy="483.625" r="9.125" fill="#2f43d4"/><circle cx="182.5" cy="474.5" r="18.25" fill="#b0588d"/><g transform="translate(237.25,456.25) scale(1.825) rotate(0)"><path d="M10 1L12.2451 7.90983H19.5106L13.6327 12.1803L15.8779 19.0902L10 14.8197L4.12215 19.0902L6.36729 12.1803L0.489441 7.90983H7.75487L10 1Z" fill="#f0626b"/></g><circle cx="401.5" cy="474.5" r="18.25" fill="#f09748"/><rect x="456.25" y="456.25" width="36.5" height="36.5" fill="#fc6464"/><g transform="translate(456.25,456.25) scale(0.9125) rotate(0)"><path d="M10 1L12.2451 7.90983H19.5106L13.6327 12.1803L15.8779 19.0902L10 14.8197L4.12215 19.0902L6.36729 12.1803L0.489441 7.90983H7.75487L10 1Z" fill="#cc5c7e"/></g><g transform="translate(474.5,456.25) scale(0.9125) rotate(0)"><path d="M10 1L12.2451 7.90983H19.5106L13.6327 12.1803L15.8779 19.0902L10 14.8197L4.12215 19.0902L6.36729 12.1803L0.489441 7.90983H7.75487L10 1Z" fill="#bfd341"/></g><circle cx="483.625" cy="483.625" r="9.125" fill="#d6a94e"/><circle cx="620.5" cy="474.5" r="18.25" fill="#ebab3d"/><circle cx="693.5" cy="474.5" r="18.25" fill="#ceb84a"/><g transform="translate(748.25,456.25) scale(1.825) rotate(0)"><path d="M10 1L12.2451 7.90983H19.5106L13.6327 12.1803L15.8779 19.0902L10 14.8197L4.12215 19.0902L6.36729 12.1803L0.489441 7.90983H7.75487L10 1Z" fill="#f46369"/></g><circle cx="839.5" cy="474.5" r="18.25" fill="#3d45cd"/></g></svg>